<?xml version="1.0" encoding="utf-8"?>
<!-- Generator: Adobe Illustrator 23.0.1, SVG Export Plug-In . SVG Version: 6.00 Build 0)  -->
<svg version="1.1" xmlns="http://www.w3.org/2000/svg" xmlns:xlink="http://www.w3.org/1999/xlink" x="0px" y="0px"
	 viewBox="0 0 1024 1024" style="enable-background:new 0 0 1024 1024;" xml:space="preserve">
<style type="text/css">
	.st0{display:none;}
	.st1{display:inline;}
	.st2{fill:#E82D00;}
	.st3{fill:#FFFFFF;}
	.st4{fill:#4CAF50;}
</style>
<g id="Layer_1">
	<path d="M110,153.4h824c19.8,0,35.8,16,35.8,35.8S953.8,225,934,225H110c-19.8,0-35.8-16-35.8-35.8S90.2,153.4,110,153.4L110,153.4
		z M110,296.8h824c19.8,0,35.8,16,35.8,35.8s-16,35.8-35.8,35.8H110c-19.8,0-35.8-16-35.8-35.8S90.2,296.8,110,296.8L110,296.8z
		 M139.2,440.1h765.6c35.8,0,65,29.3,65,65v299.8c0,35.8-29.3,65-65,65H139.2c-35.8,0-65-29.3-65-65V505.1
		C74.2,469.3,103.5,440.1,139.2,440.1z M145.9,560.4v189.3c0,26.8,21.9,48.7,48.7,48.7h655c26.8,0,48.7-21.9,48.7-48.7V560.4
		c0-26.8-21.9-48.7-48.7-48.7h-655C167.8,511.7,145.9,533.6,145.9,560.4L145.9,560.4z"/>
</g>
<g id="Layer_4">
	<g>
		<path d="M555.2,718.4l76-76c14-14,14-36.7,0-50.7s-36.7-14-50.7,0l-76,76c-14,14-14,36.7,0,50.7
			C518.6,732.4,541.3,732.4,555.2,718.4z"/>
		<path d="M463.5,591.7l76,76c14,14,14,36.7,0,50.7s-36.7,14-50.7,0l-76-76c-14-14-14-36.7,0-50.7S449.5,577.7,463.5,591.7z"/>
	</g>
</g>
<g id="Layer_2" class="st0">
	<g class="st1">
		<path class="st2" d="M696.9,973.5H347.1c-8.3,0-15-6.8-15-15V781.3c0-8.3,6.8-15,15-15h349.9c8.3,0,15,6.8,15,15v177.2
			C711.9,966.8,705.2,973.5,696.9,973.5z"/>
		<g>
			<path class="st3" d="M373.3,807.5h32.7c8.8,0,15.6,0.7,20.4,2.1c4.8,1.4,8.3,3.4,10.7,6c2.4,2.6,4,5.8,4.9,9.5s1.3,9.5,1.3,17.3
				v10.9c0,8-0.8,13.8-2.5,17.4c-1.6,3.7-4.7,6.5-9.1,8.4s-10.1,2.9-17.2,2.9h-8.7v50.3h-32.5V807.5z M405.8,828.8v31.8
				c0.9,0.1,1.7,0.1,2.4,0.1c3,0,5.1-0.7,6.2-2.2c1.2-1.5,1.7-4.5,1.7-9.1v-10.3c0-4.3-0.7-7-2-8.3
				C412.8,829.5,410,828.8,405.8,828.8z"/>
			<path class="st3" d="M485.1,807.5v99.9h19.7v25h-52.2V807.5H485.1z"/>
			<path class="st3" d="M586.6,807.5v83.5c0,9.5-0.3,16.1-0.9,19.9s-2.4,7.8-5.5,11.8c-3,4-7,7.1-12,9.2c-5,2.1-10.8,3.1-17.6,3.1
				c-7.5,0-14-1.2-19.7-3.7c-5.7-2.5-10-5.7-12.8-9.6c-2.8-4-4.5-8.1-5-12.5s-0.8-13.6-0.8-27.7v-73.9h32.5v93.7
				c0,5.5,0.3,8.9,0.9,10.5c0.6,1.5,1.8,2.3,3.6,2.3c2.1,0,3.4-0.8,4-2.5c0.6-1.7,0.9-5.6,0.9-11.8v-92H586.6z"/>
			<path class="st3" d="M668,845.3h-30.2V836c0-4.3-0.4-7.1-1.2-8.3c-0.8-1.2-2.1-1.8-3.9-1.8c-2,0-3.4,0.8-4.4,2.4
				c-1,1.6-1.5,4-1.5,7.3c0,4.2,0.6,7.3,1.7,9.4c1.1,2.1,4.1,4.7,9.2,7.6c14.5,8.6,23.6,15.6,27.3,21.1c3.8,5.5,5.6,14.4,5.6,26.6
				c0,8.9-1,15.5-3.1,19.7c-2.1,4.2-6.1,7.8-12.1,10.6s-12.9,4.3-20.8,4.3c-8.7,0-16.1-1.6-22.3-4.9c-6.1-3.3-10.2-7.5-12.1-12.6
				c-1.9-5.1-2.9-12.3-2.9-21.7v-8.2h30.2v15.2c0,4.7,0.4,7.7,1.3,9c0.8,1.3,2.4,2,4.5,2c2.2,0,3.8-0.8,4.8-2.5
				c1.1-1.7,1.6-4.2,1.6-7.6c0-7.4-1-12.2-3-14.4c-2.1-2.3-7.1-6-15.2-11.3c-8.1-5.3-13.4-9.2-16-11.6c-2.6-2.4-4.8-5.8-6.5-10
				c-1.7-4.3-2.6-9.7-2.6-16.4c0-9.6,1.2-16.6,3.7-21s6.4-7.9,11.8-10.4c5.5-2.5,12-3.7,19.7-3.7c8.4,0,15.6,1.4,21.6,4.1
				c5.9,2.7,9.9,6.2,11.8,10.3s2.9,11.2,2.9,21.1V845.3z"/>
		</g>
	</g>
</g>
<g id="Layer_3">
	<g>
		<path class="st4" d="M636.2,239.5c0,103,83.5,186.5,186.5,186.5s186.5-83.5,186.5-186.5S925.6,53,822.7,53
			S636.2,136.5,636.2,239.5z"/>
		<path class="st3" d="M796,150.7h53.3v177.6H796V150.7z"/>
		<path class="st3" d="M733.9,212.9h177.6v53.3H733.9V212.9z"/>
	</g>
</g>
</svg>
