<svg class="svg-icon" style="width: 1em;height: 1em;vertical-align: middle;fill: currentColor;overflow: hidden;" viewBox="0 0 1024 1024" version="1.1" xmlns="http://www.w3.org/2000/svg"><path d="M714.666667 917.333333h-405.333334C198.4 917.333333 106.666667 825.6 106.666667 714.666667v-405.333334C106.666667 198.4 198.4 106.666667 309.333333 106.666667h405.333334c110.933333 0 202.666667 91.733333 202.666666 202.666666v405.333334c0 110.933333-91.733333 202.666667-202.666666 202.666666z m-405.333334-746.666666C232.533333 170.666667 170.666667 232.533333 170.666667 309.333333v405.333334c0 76.8 61.866667 138.666667 138.666666 138.666666h405.333334c76.8 0 138.666667-61.866667 138.666666-138.666666v-405.333334c0-76.8-61.866667-138.666667-138.666666-138.666666h-405.333334z" fill="#111111" /><path d="M405.333333 597.333333c-83.2 0-149.333333-66.133333-149.333333-149.333333s66.133333-149.333333 149.333333-149.333333 149.333333 66.133333 149.333334 149.333333-66.133333 149.333333-149.333334 149.333333z m0-234.666666c-46.933333 0-85.333333 38.4-85.333333 85.333333s38.4 85.333333 85.333333 85.333333 85.333333-38.4 85.333334-85.333333-38.4-85.333333-85.333334-85.333333z" fill="#111111" /><path d="M526.933333 721.066667c-17.066667 0-32-14.933333-32-32 0-38.4-40.533333-68.266667-87.466666-68.266667-49.066667 0-87.466667 29.866667-87.466667 68.266667 0 17.066667-14.933333 32-32 32s-32-14.933333-32-32c0-72.533333 68.266667-132.266667 151.466667-132.266667 83.2 0 151.466667 59.733333 151.466666 132.266667 0 19.2-14.933333 32-32 32z" fill="#111111" /><path d="M744.533333 420.266667h-128c-17.066667 0-32-14.933333-32-32s14.933333-32 32-32h128c17.066667 0 32 14.933333 32 32s-14.933333 32-32 32zM744.533333 548.266667h-128c-17.066667 0-32-14.933333-32-32s14.933333-32 32-32h128c17.066667 0 32 14.933333 32 32s-14.933333 32-32 32zM744.533333 676.266667h-128c-17.066667 0-32-14.933333-32-32s14.933333-32 32-32h128c17.066667 0 32 14.933333 32 32s-14.933333 32-32 32z" fill="#3D7FFF" /></svg>