<?xml version="1.0" encoding="utf-8"?>
<!-- Generator: Adobe Illustrator 23.0.1, SVG Export Plug-In . SVG Version: 6.00 Build 0)  -->
<svg version="1.1" id="Layer_1" xmlns="http://www.w3.org/2000/svg" xmlns:xlink="http://www.w3.org/1999/xlink" x="0px" y="0px"
	 viewBox="0 0 1024 1024" style="enable-background:new 0 0 1024 1024;" xml:space="preserve">
<path d="M110,153.4h824c19.8,0,35.8,16,35.8,35.8s-16,35.8-35.8,35.8H110c-19.8,0-35.8-16-35.8-35.8S90.2,153.4,110,153.4L110,153.4
	z M110,296.8h824c19.8,0,35.8,16,35.8,35.8s-16,35.8-35.8,35.8H110c-19.8,0-35.8-16-35.8-35.8S90.2,296.8,110,296.8L110,296.8z
	 M139.2,440.1h765.6c35.8,0,65,29.3,65,65v299.8c0,35.8-29.3,65-65,65H139.2c-35.8,0-65-29.3-65-65V505.1
	C74.2,469.3,103.5,440.1,139.2,440.1z M145.9,560.4v189.3c0,26.8,21.9,48.7,48.7,48.7h655c26.8,0,48.7-21.9,48.7-48.7V560.4
	c0-26.8-21.9-48.7-48.7-48.7h-655C167.8,511.7,145.9,533.6,145.9,560.4L145.9,560.4z"/>
<path d="M555.2,718.4l76-76c14-14,14-36.7,0-50.7s-36.7-14-50.7,0l-76,76c-14,14-14,36.7,0,50.7
	C518.6,732.4,541.3,732.4,555.2,718.4z"/>
<path d="M463.5,591.7l76,76c14,14,14,36.7,0,50.7s-36.7,14-50.7,0l-76-76c-14-14-14-36.7,0-50.7S449.5,577.7,463.5,591.7z"/>
</svg>
